<svg width="48" height="48" fill="none" xmlns="http://www.w3.org/2000/svg">
  <path
    d="m12.055 23-.073-.226-.106.005-.076.425.318-.014-.063-.19ZM12.985 25.891l.082-.075-.088-.168-.32-.61-.513-.974-.326.024-.007.064-.013.133c.028.172.049.37.07.579.028.257.057.528.102.784.074.425.194.806.428.997.15-.355.342-.531.585-.754ZM12.753 21.202c-.037.237-.073.474-.108.712.077-.287.156-.573.235-.86a4.51 4.51 0 0 1-.106.005 4.337 4.337 0 0 1-.021.143ZM13.911 18.45l-1.493-.407-.065.072a890.594 890.594 0 0 1-.13 2.078c.269-.73.72-1.028 1.238-1.37.144-.095.293-.193.444-.305l.006-.067ZM13.997 17.808c-.157-.56-.278-.992-.184-1.916l-.31.269c-.092.19-.192.368-.293.545-.216.384-.433.768-.566 1.29l.052.057c.686-.037 1.16.197 1.607.42.087-.282-.017-.396-.284-.586l-.022-.079ZM16.002 14.604l-.045.003-.466.154c-.952.693-.968 2.447-.118 2.852.223-.404.34-1.188.445-1.896.065-.436.126-.843.204-1.115a1.4 1.4 0 0 0-.02.002ZM15.881 20.671l-.717-.782.858.577-.05-.128c-.064-.166-.128-.332-.194-.497a189.628 189.628 0 0 0-.663-.078c-.044.212-.15.5-.27.826-.299.81-.685 1.86-.427 2.584l.276.02.148.011c.129-.578.36-1.04.586-1.493.168-.337.333-.669.453-1.04ZM17.205 15.916c-.064-.38-.127-.76-.08-1.314l-.485.036a8.811 8.811 0 0 0-.618 2.545 597.023 597.023 0 0 1 1.267-.644c-.018-.225-.051-.424-.084-.623ZM17.71 13.312l-.093.006-.112.168c-.073.085-.145.17-.216.256l.28-.018c.049-.138.096-.275.142-.412ZM16.444 18.043l1.267-.784-.023-.443-.063-.035-.051-.028c-.503.178-1.104.815-1.13 1.29ZM18.327 15.603l.229-1.308c-.277-.04-.553-.082-.829-.123-.048.602.008 1.396.238 1.72l.094-.104.031-.035.237-.15ZM19.395 13.355l.005-.042-.73-.001a108.393 108.393 0 0 0-.114.425h.022c.253.01.284.01.493-.07l.324-.312ZM19.867 12.451l.377-.86c-.508.112-.902.31-1.298.508-.127.063-.253.127-.384.188a1.528 1.528 0 0 0-.006.07l1.311.094ZM19.702 13.742l-.14.082c-.038.06-.075.122-.112.183l-.05.082.422.083-.12-.43ZM19.887 15.261c.27-.036.545-.073.78-.164l-.15.009-.48-.19-.796-.314-.116.152-.147.191.088.517c.215-.12.513-.16.822-.2ZM19.013 15.892l.573-.021.44-.054.64-.355c-.151.017-.307.03-.462.044-.466.04-.923.08-1.227.204a4.643 4.643 0 0 1 .036.182ZM19.826 16.753c.316-.334.779-.762 1.263-.883-.043-.25-.061-.266-.176-.366l-.047-.042c-.357.214-1.102.902-1.04 1.29ZM21.927 10.8l.006-.07-1.259.364v.005l-.008.062.753-.055.508-.307ZM21.218 11.973l.032.048 1.528-.338c-.073-.008-.156-.018-.244-.03-.094-.012-.194-.025-.297-.036.835-.1 1.776.103 2.096.413l.134-.011c-.327.305-.742.476-1.154.646-.416.171-.828.341-1.142.647l-.13-.087c-.43-.283-.78-.513-.952-1.145.04-.038.083-.074.129-.107ZM21.218 11.973l-.13-.193c.258-.218.728-.207 1.149-.163-.386.047-.75.159-1.02.356Z"
    fill="#000" />
  <path fill-rule="evenodd" clip-rule="evenodd"
    d="M26.851 11.277c-.487-.3-1.125-.465-1.822-.522-.857-.071-1.802.021-2.667.222l-.002.016a1.305 1.305 0 0 0-.005.038l3.671.528c-.361.056-.734.03-1.137-.056.542.517 1.405.717 2.255.914.55.128 1.095.254 1.545.465-.192-.576-.632-.91-1.066-1.24-.202-.153-.403-.306-.576-.481a3.14 3.14 0 0 1-.196.116Zm0 0c-.274.149-.546.24-.825.283l.22.031.675-.2.079-.111-.13.008a1.787 1.787 0 0 0-.019-.011Z"
    fill="#000" />
  <path
    d="m27.747 10.65.09-.122.007-.065-1.266-.162c.319.25.705.4 1.11.43l.06-.08ZM30.436 11.983l-.35.135c.102-.135.157-.17.169-.215.009-.037-.01-.08-.053-.187-.392-.13-.764-.307-1.143-.49-.365-.174-.738-.353-1.144-.495l-.21.085-.283.115.053.11c1.22.352 1.914 1.355 2.466 2.27l.202-.012c.07-.093.147-.182.221-.27.206-.24.4-.468.436-.73l-.203-.176-.16-.14ZM31.01 14.061l.095.095.015-.144.03-.27c-.118.111-.234.223-.35.334l.043-.003c.055-.004.11-.009.167-.012ZM31.957 21.054c.238-.935.092-1.654-.48-2.151l-.008.067a2.767 2.767 0 0 1-.006.052l-.072.11-.169.26c.168.377.335.756.502 1.134l.233.528ZM31.641 15.073l.003-.036-.092.008-.044.004c-.12.017-.145-.02-.165-.017-.019.003-.033.042-.12.201l.057.115.057.114.3-.345.004-.044ZM33.333 15.53l-1.337-.498-.34.228-.012.135 1.34.497.338-.227.004-.046c.003-.03.006-.06.007-.09ZM33.859 16.257l.741.495c-.077-.272-.154-.545-.229-.817-.165-.032-.239-.05-.308-.04-.074.013-.142.06-.308.162l.045.086.059.114ZM34.874 16.753l.148-.164-.035-.098-.208-.09-.179-.079.002.006c.06.215.093.333.272.425ZM34.6 15.367l.107-.008c.056-.077.114-.154.172-.231l.072-.096-.046.044-.305.29ZM36.505 17.613l.206-.09-.53-.687a1.692 1.692 0 0 1-.414-.306c-.214-.2-.353-.329-.745-.037l.258.352.095.13 1.13.638ZM36.711 17.747l.422.154-.167-.288-.255.134ZM36.95 18.8c-.185.035-.21.04-.33-.206l.106-.024.368-.087-.172-.277c-.154-.022-.272-.057-.38-.088-.204-.06-.37-.109-.668-.045l-.007.074.617 1.186.65-.562c-.076.01-.135.02-.184.03ZM37.555 18.903l-.844.463c.066.132.13.265.194.397l.108-.114c.214-.225.397-.417.542-.746Z"
    fill="#000" />
  <path fill-rule="evenodd" clip-rule="evenodd"
    d="m38.341 21.057.059-.05-.365-.849-.354-.825-.15.072-.481.572-.34.403a784.723 784.723 0 0 1 .03 1.504l-.045.024a1528.01 1528.01 0 0 0-.828 1.726l.211-.014c.117-.054.232-.107.344-.157 1.156-.526 1.996-.908 1.978-2.41l-.059.004Zm-.392.198.38-.197.012-.001a.912.912 0 0 1-.392.198Zm0 0-.143.075-.217-.024c.149-.012.264-.028.36-.05Zm-.143.075h.002l.13.015-.008.062-1.189.507v-.03l.498-.26.567-.294Z"
    fill="#000" />
  <path
    d="M37.978 18.655c2.33-.654 1.88.59.84 1.538-.28-.512-.561-1.025-.84-1.538ZM36.027 24.925c3.037-1.743 3.203-1.965 4.062-6.022a8.473 8.473 0 0 1-.132.073l-.992 1.282c.117 2.362-1.01 3.404-2.991 3.972l-.107.453.064.097.096.145ZM35.052 22.4l-.03.448c.053.227.08.265.222.356.17-.407.25-.783.168-1.29l-.04.005-.294.097-.016.232-.01.152Z"
    fill="#000" />
  <path fill-rule="evenodd" clip-rule="evenodd"
    d="m33.34 26.537-.006.075.543.013.828.02.068-.198c.153-.436.28-.801.243-1.242a1.907 1.907 0 0 0-.03-.214l-.975-.066-.036.084c-.027.065-.055.13-.08.196l-.308.74.118-.412.006-.023.045-.155-.037.003-.338.174-.043.023-.004.053.08.274.081.283-.155.372Zm.155-.372.015.05.077-.27-.092.22Z"
    fill="#000" />
  <path
    d="m33.768 27.673-.012.665.356.027.488-.814-.104.008-.712-.054-.016.168ZM32.594 27.611l.085.086c-.062-.094-.064-.11-.072-.118-.009-.008-.025-.009-.118-.074l.105.106ZM32.304 27.08c-.26-.01-.466-.018-.66.105l.07.235.013.049c.065.006.118.013.164.02.19.024.262.034.495-.06a30.612 30.612 0 0 0 .103-.343 7.706 7.706 0 0 1-.185-.006ZM32.49 29.57l-.328-.775c-.41.107-.657.98-.431 1.29l.758-.514ZM31.223 26.104a5.26 5.26 0 0 1 .106-.008l.009-.087.023-.224-.139.32ZM32.49 26.18l.054.035.367-.017a36.356 36.356 0 0 0-.087-.206l-.088-.207-.061.003-.083.174-.103.218ZM35.445 20.478l.023.145.154-.01c.056-.039.112-.076.17-.114l.075-.051-.049-.255c-.191.064-.262.149-.373.285Z"
    fill="#000" />
  <path fill-rule="evenodd" clip-rule="evenodd"
    d="M35.257 21.828a.709.709 0 0 0 .188-.154l-.412-1.865.264.384.57-.54c-.096-.215-.217-.249-.348-.285-.1-.028-.204-.057-.31-.166-.114-.12-.071-.24-.026-.366.036-.101.074-.207.035-.321-.27-.793-1.613-1.43-2.38-1.763l-.055.044-.294.231.688.6.897.783.526.767.424.62.113 2.117c.036-.03.078-.058.12-.086Zm-.233-2.031-.001-.034.01.046-.009-.012Z"
    fill="#000" />
  <path
    d="M35.023 24.925c-.034-.38-.073-.524-.353-.369l-.478.234-.014.132.282.001.563.002ZM34.447 23.204l-.19.163-.079.226.35.041a5.745 5.745 0 0 0 .072-.152l-.054-.099-.1-.179ZM33.738 24.925l.44-.417-.639-.014-.138.265-.067.13.117-.012.183.03.104.018ZM32.498 24.135c-.014.029-.025.05.086.129l-.081-.2c.012.034.003.054-.005.07ZM32.49 21.6l1.426.744c.749-1.673-.237-3.47-1.337-3.871.08.84.011 1.759-.052 2.608-.014.177-.026.35-.038.52ZM33.211 22.56c-.078-.07-.159-.142-.3-.216.028.165.021.32.014.49-.01.218-.02.46.04.779l.518.021c.03-.052.06-.1.087-.143.15-.24.232-.371.16-.641a1.177 1.177 0 0 1-.519-.29ZM32.92 24.994c-.014.03-.025.052.088.13-.023-.052-.044-.105-.066-.159l-.017-.04a.08.08 0 0 1-.005.07Z"
    fill="#000" />
  <path fill-rule="evenodd" clip-rule="evenodd"
    d="m35.87 20.905-.003.079.032.264c.032.27.068.582.137.81-.056.095-.112.19-.17.285l.108-.008.078-.228c.037.107.083.19.141.236.1-.546.126-1.28.059-1.72l-.382.282Zm.182 1.202.07-.194-.086.145.016.05Z"
    fill="#000" />
  <path
    d="M35.867 17.966a10.358 10.358 0 0 0-.04-.128l-.383-.226.317.43.106-.076ZM35.456 18.479c-.004.024-.006.05-.012.075.138.202.178.23.423.349l-.318-.43-.093.006ZM32.431 22.395a10.081 10.081 0 0 1-.128-.052l-.065.079-.092.11c-.17.278-.04.918.145 1.056l.198.046-.057-1.24ZM31.504 24.494l-.136.006c-.048.141-.096.283-.146.424l.205-.008.217-.085-.097-.234-.043-.103ZM30.8 30.748l.182.628.656-.802a.96.96 0 0 1 .006-.058l-.064.004-.78.228ZM30.614 29.26c-.114.113-.166.166-.236.395l.162-.017.26-.256-.032-.112-.118-.045-.035.036ZM30.378 29.866l.198.22.114-.008.11-.423-.158.08-.264.131ZM29.956 31.892l.175.146.17.198.5-.343-.031-.25a47.508 47.508 0 0 1-.033-.267l-.651.508-.13.008ZM26.017 34.828l-.219.014c.113.338.06.775-.065 1.205.562.164 1.126.328 1.689.49-.275-.638-.666-1.332-1.241-1.72l-.164.01ZM25.648 32.91l-1.063.308-.119.557c.23.082.414.176.59.266.412.21.774.396 1.55.334.627-.32 1.25-.57 1.845-.81.374-.15.737-.297 1.082-.453l-.054-.151-2.992-.295-.84.244ZM24.504 34.872l-.038.373.8.432c.076-.302.041-.478-.007-.724a9.204 9.204 0 0 1-.027-.136l-.728.055ZM23.752 35.846l-.13.073.3.05.817.138.15-.148c-.112-.036-.213-.088-.31-.138-.229-.118-.43-.223-.675-.06l-.152.085ZM24.167 35.121c.091.043.183.085.274.126l.025-.403-.422-.027.039.096.084.208ZM23.622 35.61l-.422-.363.351.86a4.57 4.57 0 0 1 .042-.213 1.06 1.06 0 0 0 .029-.283ZM23.257 33.532c-.444.004-.84.007-1.152.103l-.172.21 1.138.112.55-.43c-.124.003-.246.004-.364.005ZM25.733 13.69l-.331-.378c-.016 0-.03.001-.046.003h-.017a6.021 6.021 0 0 0-2.562.691l.107.166.062-.005c.482-.25 1.172-.356 1.871-.416.28-.023.561-.04.83-.056l.086-.005ZM28.988 14.388l-1.566-.216c.095.177.154.403.215.634.06.227.12.459.218.657l1.256-1.085-.123.01ZM29.24 15.982l.194.03.1-.12-.423.07.13.02ZM29.272 14.825l-.16.159a3.803 3.803 0 0 1 .141-.014l.28.062-.015-.184a41.573 41.573 0 0 0-.02-.246l-.226.223ZM29.692 29.226l.185-.008.025-.132.053-.29-.3.117-.093.124-.029.039.041.038.118.112ZM29.635 29.894l-.094.109-.008.083.422-.037-.245-.394-.014.168-.061.07ZM29.292 31.278l.081.098.169-.012h.011l.402-.418-.844.114.18.218ZM28.689 32.564l.844.103c-.071-.126-.144-.25-.216-.375l-.033-.056-.595.328ZM29.111 31.616l-.17-.163-.184-.077-.912.43.655-.032.442-.114.17-.044ZM27.844 13.312c-.251-.291-.773-.417-1.266-.43l.16.187c.12.204.512.217.841.228.097.004.188.007.265.015ZM27.288 15.462c.044-.399-.04-.648-.282-.86.002.058 0 .118-.003.18-.01.28-.02.575.285.68ZM27.428 17.282l-.006.031.028.021c.16.121.312.236.625.279.383-.263.201-.557-.64-.373a1.019 1.019 0 0 0-.007.043ZM28.689 28.412l-.186-.046-.063.004-.174.426.187-.146.23-.18.006-.058ZM28.586 17.613l-.315.262-.005.075.423.093-.103-.43ZM28.513 29.643l1.02-.267-.049-.083-.357-.067c-.226.184-.47.312-.854.387l-.006.043c.076-.005.154-.008.23-.012h.016ZM28.689 28.127l.116.238.139-.012.167-.347a10.535 10.535 0 0 1-.131-.07l-.169.11-.122.081ZM26.658 30.946l-.502.394a6.35 6.35 0 0 1 .131-.01c.202.238.54.412.929.476l1.05-.61-.052-.116-1.556-.134ZM26.156 31.806l-.782-.43c-.162.07-.323.138-.485.206l1.267.224ZM25.305 32.359l.006-.105a1.303 1.303 0 0 1-.147-.012c-.114-.014-.129-.016-.269.17l-.006.103.086-.01.09-.012.24-.134ZM23.2 14.621l.12.129.14.607c.487-.06.98-.079 1.471-.054.443.02.86.069 1.284.118l.363.041-.205-1.29-.081.001c-.37.007-.862.016-1.36.056-.651.054-1.313.162-1.732.392ZM24.044 32.19l-.103-.181-.651-.203c-.048.07-.095.134-.14.195-.146.197-.277.373-.372.665l.445-.034.722-.055.1-.386ZM21.089 29.656c.154.44.883.83 1.413.86l.276-.428-1.69-.432ZM22.778 30.516l.317-.023.044-.407a27.229 27.229 0 0 0-.35.328l-.006.055a4.391 4.391 0 0 0-.005.047ZM22.447 14.602l-.514.163.498.267.346-.013-.33-.417ZM21.847 33.514l.08-.282c0-.019.002-.038.004-.056l.002-.036-.422-.043c.071.142.143.286.213.43.041-.006.082-.01.123-.013ZM23.146 31.576l-.984-.2-.65 1.154.923.137.765-.956-.054-.134ZM29.724 17.616l-.19.281.25.146.593-.22-.054-.076-.53-.134-.07.003ZM30.378 16.322l.297.185c-.08-.093-.083-.114-.095-.123-.015-.01-.04-.002-.202-.062ZM30.428 18.343c.05.044.1.087.152.13.072-.144.146-.287.22-.43l-.423.257.05.043ZM31.034 21.647l-.657-.163c.069.186.356.275.614.354.083.025.163.05.231.076l-.001-.017c-.014-.163-.016-.183-.187-.25ZM30.533 20.193l-.091.119-.064.229.422.082-.267-.43ZM21.933 34.576l-.043-.112c-.094-.016-.162-.034-.216-.049-.135-.035-.193-.051-.384.038-.06.093-.12.186-.178.28l-.017.026-.006.058.276-.022.569-.219ZM20.667 12.882c.369.274.463.614.407 1.72-.243-.313-.39-.973-.407-1.72ZM20.878 12.333l.032-.312-.038.052-.205.275.211-.015ZM20.658 12.543l.009-.092-.1.008-.322.23.39.073.023-.219ZM20.806 35.939l-.14 1.459.134-.079 1.556-2.502a911.037 911.037 0 0 1-1.48.391l-.07.73ZM20.998 31.376l-.227.136-.084.127c-.043.349-.025.444.139.598.194-.258.38-.613.172-.86ZM19.887 30.516l-.487.786c.07.4.218.718.461.934l.116-.18.69-1.08-.78-.46ZM19.828 34.278l-.428.392 1.174.147.03-.205.063-.421-.083-.138a34.785 34.785 0 0 0-.037-.063l-.369-.033-.35.321ZM19.062 33.526l-.929.56.133-.007c.193.17.44.27.812.308l.744-.65-.025-.047c-.01-.017-.02-.034-.028-.052l-.707-.112ZM18.35 33.097l-.34.158-.721.172a22.117 22.117 0 0 1 .283.1l.984-.328-.061-.071-.146-.031ZM16.956 32.634l-.09.217.19.14.14.105.42-.027.3-.206.217-.15a10.888 10.888 0 0 1-.1-.153 1.79 1.79 0 0 1-.275-.15c-.175-.11-.326-.205-.643-.164l-.16.388ZM16.184 33.36l-.873-.263-.555.96 1 .33.688-.837a6.432 6.432 0 0 1-.06-.129l-.2-.06Z"
    fill="#000" />
  <path fill-rule="evenodd" clip-rule="evenodd"
    d="m12.639 32.594-.017-.22-.393-.135-.003-.002h-.003l-.128.01c-.03.035-.059.071-.088.108l-.207.252c.05 1.298.665 2.354 2.183 2.194l.772-.6-.05-.13c-.732-.216-1.284-.738-1.813-1.24l-.253-.237Zm-.416-.357.03.067.047.102.345.26-.006-.072a7.22 7.22 0 0 0-.41-.355l-.006-.002Z"
    fill="#000" />
  <path
    d="M13.238 27.9a.944.944 0 0 0 .046.035l.575-1.284.01-.006c.107.19.23.342.352.492.227.282.446.554.534 1.036l-1.003 1.053c-.31-.23-.528-.528-.686-.918l.172-.408Z"
    fill="#000" />
  <path
    d="M13.087 27.665c.046.113.067.165.151.235l.495-1.174.126-.075.052-.116-.144-.212-.073-.108-.338.297-.08.308-.21.795.02.05ZM14.695 29.27c-.12.117-.24.235-.362.352.167.005.333.01.5.013l.767.02-.14-.285-.28-.574-.485.473ZM15.852 21.977c.203-.324.411-.656.592-1.045l-.152-.308-.128.074c-.08.198-.211.433-.352.686-.331.597-.716 1.29-.619 1.82.175-.454.413-.835.659-1.227ZM17.943 17.613c-.45.4-.871.758-1.499.953l1.157.337.258-.347.274-.369-.19-.574ZM18.326 18.903l.23-.294a3.755 3.755 0 0 0-.017-.066l-.018-.07-.383.35-.005.047.194.033ZM18.29 16.753l-.067.004c-.139.412-.154.653.232.856.02-.064.042-.127.064-.19l.037-.107-.267-.563ZM18.535 29.506l-.39-.28a1.813 1.813 0 0 0-.012.104l.402.176ZM18.556 29.838l-.418-.182-.165.04-.678.167-.006.052.027.095c.06.215.112.405.337.506l.896-.626.007-.052ZM17.289 28.958l-.401-.162-.021.311.207-.023.124-.073.091-.053ZM17.235 20.322c-.024-.044-.11-.055-.368-.129l.033.064c.092.178.126.244.336.366-.011-.186.021-.258-.002-.3ZM16.902 27.505l-.035.372.422.058c-.123-.21-.19-.293-.387-.43ZM17.457 22.706c.11-.041.139-.052.254-.2l-.158-.109-.079-.053-.185.43c.074-.033.127-.053.168-.068ZM17.447 21.054l.264-.278-.11-.133-.017-.02-.065.026-.093.035a.908.908 0 0 1-.102.178c-.058.084-.06.087.122.192ZM17.289 19.764l.388.28c-.075-.112-.099-.155-.135-.181-.04-.03-.096-.04-.253-.1ZM16.867 27.935l.422.339c-.216-.006-.331-.053-.422-.339ZM17.961 27.935l.172-.016a71.873 71.873 0 0 1-.137-.294c-.02-.04-.038-.08-.056-.12l-.23.022.104.134.147.274ZM17.765 19.818l.135.137c-.063-.094-.064-.11-.072-.118-.008-.008-.024-.009-.117-.074l.054.055ZM17.71 26.588l.217.45.206.037-.126-.39-.151-.47-.054.003-.091.37ZM16.867 32.1l-.047-.058-.798-.236c.065.413.383.736.693.86l.152-.566ZM15.844 32.884a85.815 85.815 0 0 0-.244-.217c-.192-.835-1.088-1.331-1.876-1.768-.236-.13-.462-.256-.657-.383.596.839 1.552 1.682 2.533 2.15.128.248.15.257.378.358l.044.019-.178-.159ZM16.355 29.045a23.157 23.157 0 0 1-.026-.191l-.307-.058.358.43-.025-.18ZM15.6 30.086c.104.26.207.52.312.779l.532.081c-.187-.292-.476-.717-.844-.86ZM16.348 23.204l-.105.004-.006.024-.015.07c-.172.124-.234.226-.183.332l.275-.382.034-.048ZM15.938 27.075l.084-.17a33.21 33.21 0 0 0-.091-.26l-.331.037.095.204.243.19ZM15.6 30.516l-.34-.415-.505-.015.845.43ZM17.71 30.728l.643.648a137.363 137.363 0 0 0 .624-.54l-.144-1.18-.56.536-.562.536ZM19.042 31.935l-.065.16.423.142-.161-.43c-.05.002-.1.004-.15.008l-.047.12ZM19.501 30.382l.046.134.007-.016.152-.357-.18-.034-.126-.023.101.296ZM18.982 15.995l-.005.038.131.289.18-.264.112-.166-.418.103ZM14.333 24.064l.388.86.008-.103c.03-.353.057-.657-.396-.757ZM13.067 24.064c.028.539.259 1.039.62 1.29l.224-.141c-.018-.082-.032-.158-.046-.23-.1-.518-.147-.764-.798-.919ZM13.841 20.08c-.345.471-1.13 2.519-.591 3.03l.534.094c.121-1.258.464-2.486.971-3.389l-.104-.027a13.307 13.307 0 0 0-.095-.025 3.74 3.74 0 0 1-.204.053c-.206.048-.372.088-.51.264ZM12.72 30.522l-.258-.436-.145.086-.11.065c-.412.239-.615.695-.822 1.162l-.007.015.174.16.542.501c.112.034.237.004.363-.026.165-.039.333-.078.477.024.156.11.151.274.146.454-.005.144-.009.298.069.442l1.524.988.36-.636.145-.254c-.923-.486-1.76-1.338-2.307-2.23a2.39 2.39 0 0 0-.225.212c-.106.11-.167.173-.29.155l.133-.141.231-.54ZM11.25 24.07c-.104.413-.194.85-.248 1.273-.11.896-.047 1.73.446 2.15l-.027-.158c-.07-.4-.172-.98-.004-1.368-.071 1.37.426 2.388 1.228 2.829l-1.003-2.784-.335-1.948-.021.002-.036.003ZM10.127 25.267c.018.18.066.355.143.518l.079-.518.185-1.203-.327.325-.022.046-.05.109a3.416 3.416 0 0 0-.008.723ZM38.822 29.759l.844.327-.024-.43-.82.103Z"
    fill="#000" />
  <path fill-rule="evenodd" clip-rule="evenodd"
    d="M10 0C4.477 0 0 4.477 0 10v28c0 5.523 4.477 10 10 10h28c5.523 0 10-4.477 10-10V10c0-5.523-4.477-10-10-10H10Zm-.733 21.914c-.095-.141-.188-.282-.281-.423-.32-.013-.56-.012-.808.034A.733.733 0 0 1 8 21.373l.026-.259c.286-.21.52-.27.805-.343l.194-.05c.165-1.375.955-1.772 1.82-2.208.389-.196.792-.399 1.161-.7.15-.438.313-.838.465-1.207.163-.4.312-.762.412-1.098l.412-.286-.129.01c-.798-.518-1.597-1.034-2.396-1.55l.091-.263c1.279.389 2.255.846 3.31 1.353.286-.184.511-.416.736-.648.308-.317.616-.633 1.077-.83l-.224-.303c-1.12-.706-2.24-1.412-3.353-2.182l.321-.024c1.906.498 2.788 1.09 4.069 2.066l.475-.292-2.441-2.077-.671-.57c.03-.031.062-.062.094-.092l.048-.047.013-.129 2.429 1.226L17.906 12c.04.008.52-.26 1.103-.59.798-.448 1.793-1.008 2.139-1.122 1.238-.411 2.461-.566 3.65-.59 1.177-.024 2.323.082 3.417.193.06-.117.148-.266.249-.435.446-.75 1.136-1.911.635-2.574-.585-1.454-3.288.366-4.302 1.127a9.81 9.81 0 0 0-.31.24c.065-.122.171-.26.31-.408 1.027-1.094 3.835-2.684 4.657-1.305.518.871-.131 1.921-.655 2.768a8.044 8.044 0 0 0-.404.702c.757.14 1.35.52 1.89.883l.645-.688.243.11a.649.649 0 0 1-.097.327c-.018-.18-.023-.189-.059-.249a1.418 1.418 0 0 1-.036-.064l-.207.144-.134.183-.163.222.038.254c.347.057.41.19.527.439.03.064.064.137.108.217l.023-.012a7.47 7.47 0 0 1 .113-.062c.086-.265.193-.519.3-.772.285-.677.568-1.348.454-2.227-.16-.106-.311-.156-.49-.216-.093-.03-.194-.064-.306-.108l.515-.039.482.284c.266 1.245-.3 2.549-.873 3.52l.103.248c.88-.597 2.444-2.481 2.79-3.534l-.535.232.49-.42.316.04c-.14.857-.782 1.519-1.372 2.127-.235.243-.462.476-.645.71.852-.504 1.657-1.113 2.471-1.728.675-.51 1.357-1.025 2.075-1.489.099-.063.236-.162.391-.275.495-.358 1.174-.849 1.376-.752.033.084.067.167.102.25h-.003a4.538 4.538 0 0 0-.126.009l-7.16 5.649a388.754 388.754 0 0 1-.092.902c.332.083.664.165.997.246l.01-.006 3.117-1.825.044.19-1.091.74-1.657 1.126.13-.01c.266.278.79.51 1.285.545.771-.463 1.542-.926 2.314-1.387l-.102.138-.046.064-1.252.989c.255-.154.634-.257 1.021-.363.436-.119.881-.24 1.17-.44l-.227.337c.398.013.515.125.685.29.033.03.067.064.106.099l-.021.194a12.087 12.087 0 0 1-.14.138c-.168-.03-.336-.06-.496-.155l.27.073.103.027.003-.001a.318.318 0 0 0 .14-.138l-.063-.12a22.374 22.374 0 0 1-.098-.187c-1.11-.22-1.975.037-2.95.73.018.042.035.083.05.125l.856.384.016-.016c.422-.41.842-.82 1.255-1.166L35.7 15.989l.11.184c.668.257 1.09.779 1.509 1.297.24.297.478.593.762.837.557-.261.991-.176 1.368-.102.271.053.513.1.75.008l.619-.43c.33.118.593.261.777.519a1.8 1.8 0 0 1-.307-.162 1.211 1.211 0 0 0-.612-.218c-.158.152-.272.34-.357.554l-.23.007.102.415c-.075.328-.113.69-.151 1.057-.048.463-.098.935-.224 1.357-.602 2.018-2.07 3.354-4.046 3.947.009.08.012.159.01.238a7.36 7.36 0 0 1-.023.408c-.024.35-.05.697.054.822 1.376.472 5.587-.335 7.1-.718l-.695-.076v-.008a.652.652 0 0 1 .098-.32l.828.119.053.008.224.302c-.987 1.174-5.741 1.258-7.793 1.294l-.197.004-.628 1.134.13-.01 2.334.275c2.635.354 5.868.149 8.735-.457-1.067.911-4.421 1.538-6.286 1.49.097.274.09.428-.072.71-1.078.278-2.304-.147-3.479-.555a19.523 19.523 0 0 0-1.222-.395c-.11-.163-.226-.269-.341-.298.089.084.187.178.288.284a5.245 5.245 0 0 0-.816-.158l.166.084a.679.679 0 0 0-.578.202c-.113.051-.225.102-.336.154l.735.877 2.394 2.856-.147.204a20.26 20.26 0 0 0-.138.01c-.019 0-.037.002-.056.004l-3.285-3.467-.136.074c-.278.693-.742 1.192-1.206 1.69-.167.18-.334.36-.492.548 1.398-.53 2.85.786 2.194 2.267.478-1.785-1.806-2.854-2.756-1.778l.031.048c.041.065.041.066.142.132.123.068.264.075.392.081.151.007.286.013.355.119l-.234-.004-.469-.008.027.103a2.021 2.021 0 0 0-.317-.452c-.321.145-.629.308-.939.472-.832.44-1.68.888-2.841 1.027l.182.19c.127.25.253.503.38.755l.569 1.132c.312.028.593.082.875.136.47.09.945.182 1.58.154a3.17 3.17 0 0 1 .243-.133c.186-.096.34-.174.482-.394a1.11 1.11 0 0 0 .143-.193c-.2.932-1.112 1.286-3.457 1.014.571 1.802-.06 5.2-1.776 6.08 1.68-2.03 1.773-3.525 1.531-6.19l-1.845-.694-.734.31c-1.024.19-1.97-.523-2.178-1.182l-.072.04a6.374 6.374 0 0 1-.064.034l-1.867 2.634-.186 1.805c-.119.471-.211 1.065-.31 1.697-.26 1.671-.56 3.603-1.508 4.196l-.081.006-.113.008c1.167-.777 1.63-5.15 1.817-7.108-.69.572-1.298 1.332-1.91 2.098-.883 1.105-1.776 2.221-2.938 2.804.629-.823 1.285-1.47 1.912-2.085 1.532-1.509 2.887-2.841 3.216-6.165-.579.5-1.37 1.449-2.248 2.5-1.725 2.067-3.782 4.532-5.206 4.77-.099-.077-.197-.154-.289-.298.088-.797.45-1.334.812-1.87.17-.252.341-.505.482-.785l.117.12.128-.01c-.106.343-.262.674-.427 1.022-.177.376-.364.772-.507 1.223 1.807-1.067 5.246-5.067 6.585-6.886l-1.068-.178c-.133 1.106-1.007 2.558-1.72 3.072l-.116-.12c.165-.387.388-.699.61-1.01.282-.395.562-.788.716-1.328-.11.091-.283.267-.488.478-.695.71-1.775 1.816-2.195 1.385l.076-.356.048-.229.136-.074.25.045-.09.263c.522-.356.946-.801 1.369-1.245.35-.368.699-.735 1.102-1.05l-.051-.123-.823-.428.039-.093-.417-.065-.223-.035a34.408 34.408 0 0 0 .038-.376c.056-.01.1-.008.132-.006.059.002.07.002.02-.08-.167-.217-.216-.251-.625-.25l-.614 1.09.23.059c.307.082.577.154 1.037.14a.967.967 0 0 1-.21.148c-.45.16-.805.077-1.157-.004a4.7 4.7 0 0 0-.348-.071c.01-.015.018-.03.026-.045l-.932-.375c-2.17 2.041-4.075-1.11-2.829-2.076l-.051-.123-.6-.464-.009.088-.004.04c-.92 1.755 1.25 4.299 2.801 4.169.096-.054.192-.105.286-.156.397-.213.768-.413 1.059-.722-2.713 3.581-6.57-3.432-3.234-5.136-.153-.894-.756-1.462-1.371-2.041-.68-.64-1.374-1.293-1.493-2.416a1.869 1.869 0 0 1-.01-.135c-.053-.967.501-1.345 1.05-1.72.364-.249.726-.496.906-.912.439-1.022.495-2.04.555-3.143.023-.426.047-.864.094-1.32l-.194.014c-1.005.438-2.133 1.105-2.29 2.41.685-.019 1.253.301 1.475.853-.276-.323-.53-.572-1.12-.625.038.583.46 1.108.906 1.255l.282.027-.256.249c-.283-.05-1.119-.377-1.775-.694.137.012.28.018.42.023Zm-.421-.023c-.408-.034-.76-.11-.846-.292a.6.6 0 0 1 .008-.036c.058-.015.114-.028.17-.038.158.107.398.236.668.366Zm2.03.445.08.008-.01-.504-.064-.075-.073-.086c.074.185.11.396.097.63l-.03.027Zm4.445 12.89c.093-.1.178-.211.253-.337a.76.76 0 0 0-.02-.003 4.72 4.72 0 0 1-.233.34Zm1.968-.41.086-.005c.045-.047.08-.081.11-.11a.637.637 0 0 0 .187-.269l-.147-.076c-.074.22-.124.35-.236.46Zm13.386-1.268c.389.7.796 1.945.357 2.694.136-.635-.06-1.539-.357-2.694Zm4.347-3.892c-.045-.051-.09-.1-.134-.146l.053.014a1.9 1.9 0 0 1 .08.132Zm.658 2.15c.487-1.059-.069-1.719-.658-2.15.428.488.752 1.42.658 2.15Zm4.511-12.908.001.005.213-.43-.086.003a2.857 2.857 0 0 0-.128.422Zm-22.647 18.07-.222.118-.033.31.102-.171.153-.257ZM25.247 8.58l-.176-.032.012-.084 1.035-.053.025-.17.012-.082c-.465-.034-.946.028-1.183.281l.017-.028.26-.43.006-.002c.476-.2.772-.325 1.281-.224.11.35-.013.73-.228 1.09l-.498.165-.15-.02a19.839 19.839 0 0 0-.146-.02.681.681 0 0 1 .146-.02c.083-.005.114-.007.048-.122-.36.03-.557-.017-.719-.152a.967.967 0 0 1-.1-.1l.012-.02.109-.006.237.03Zm-.346-.024-.013.001a.54.54 0 0 1 .084-.117l-.07.116Zm12.654 4.427.535-.101.31.166c-.103.437-.32.681-.558.95l-.152.174.57-1.05-.375-.163-.33.024Zm-4.644 22.08.422-.246-.098.216-.324.03Z"
    fill="#000" />
</svg>
