<svg width="120" height="120" fill="none" xmlns="http://www.w3.org/2000/svg"><path fill-rule="evenodd" clip-rule="evenodd" d="M19.678 48.407c.24.362.48.724.722 1.086-1.444-.045-2.963-.187-3.257-.809.006-.031.012-.062.02-.093.81-.214 1.506-.227 2.515-.184Zm7.704 3.298c.115.358.234.715.349 1.071l-.817.035c.066-.364.132-.73.195-1.094l.273-.012Zm2.79 7.822c-.724.672-1.286 1.12-1.716 2.132-.6-.491-.908-1.47-1.1-2.564-.21-1.189-.282-2.514-.442-3.505.018-.168.034-.337.051-.506l.84-.061c.712 1.357 1.426 2.713 2.14 4.072l.227.432Zm-1.086-10.034c.09-.611.183-1.22.279-1.83.02-.122.037-.245.053-.367.092-.004.184-.009.274-.015-.204.738-.407 1.474-.606 2.212Zm-.583-9.954 3.84 1.049-.016.173c-1.788 1.322-3.44 1.909-4.327 4.308.111-1.782.225-3.563.336-5.345l.167-.185Zm3.587-5.53c-.252 2.485.1 3.586.53 5.128.686.491.955.784.732 1.508-1.153-.573-2.37-1.174-4.134-1.08a17.76 17.76 0 0 1-.132-.148c.497-1.961 1.46-3.165 2.207-4.718l.797-.69Zm5.515-3.306c.056-.003.112-.008.167-.012-.53 1.833-.742 6.063-1.67 7.742-2.186-1.042-2.144-5.552.305-7.334l1.198-.396Zm-2.04 13.582 1.844 2.013c-.723 2.238-2.095 3.924-2.673 6.513-.364-.027-.726-.055-1.09-.081-.929-2.612 1.398-6.864 1.793-8.767.569.067 1.137.132 1.706.2.21.535.418 1.071.627 1.608l-2.206-1.486Zm5.042-13.594c-.185 2.171.29 3.296.422 4.982-1.086.55-2.173 1.103-3.258 1.654.273-2.77.83-4.594 1.59-6.543l1.246-.093Zm1.266-3.302.241-.016c-.119.354-.24.707-.367 1.06l-.718.046c.182-.218.368-.438.556-.657l.288-.433Zm.241 10.134c-1.084.672-2.17 1.345-3.257 2.016.066-1.221 1.612-2.86 2.904-3.318.099.054.195.109.295.163l.058 1.14Zm2.172-7.622a1316 1316 0 0 0-.587 3.365l-.61.384c-.107.12-.213.24-.322.36-.59-.835-.736-2.876-.611-4.425.71.106 1.42.212 2.13.316Zm2.171-2.525-.013.11c-.279.266-.556.533-.833.8-.552.214-.621.205-1.325.181.095-.364.196-.73.295-1.094l1.876.003Zm2.172-4.427-.97 2.212-3.373-.245c.006-.06.01-.119.017-.179 1.387-.645 2.602-1.407 4.326-1.788Zm-1.754 5.741.358-.21.31 1.105-1.086-.213c.139-.227.277-.455.418-.682Zm2.84 3.273c-1.294.505-3.082.366-4.116.94-.075-.443-.15-.885-.227-1.329.227-.294.45-.589.676-.883 1.095.431 2.19.865 3.282 1.296.129-.007.256-.016.384-.024Zm-2.778 1.99-1.474.056c-.033-.156-.06-.312-.092-.468 1.038-.424 2.78-.465 4.343-.638l-1.648.913c-.376.045-.751.09-1.129.137Zm3.863 0c-1.244.31-2.435 1.41-3.248 2.268-.159-.999 1.756-2.767 2.674-3.318.407.364.45.326.574 1.05Zm2.172-13.216-.017.176-1.305.788-1.936.142c.008-.057.014-.116.02-.173l3.237-.933Zm-1.757 3.318-.415-.62c.978-.83 3.143-.372 4.343-.25l-3.928.87Zm9.716-3.257c1.816.149 3.474.581 4.733 1.371l.336-.02-.202.285-1.736.515-3.131-.451-6.874-.99c.005-.047.012-.092.018-.137 2.222-.518 4.653-.755 6.856-.573Zm7.223-.583c-.13.174-.257.349-.385.522a5.232 5.232 0 0 1-2.855-1.106l3.257.418-.017.166Zm5.783 4.088.9-.345c.312.27.622.542.934.811-.126.92-1.011 1.675-1.689 2.572l-.52.032c-1.418-2.353-3.204-4.934-6.34-5.84l-.136-.282c.423-.17.844-.343 1.267-.514 2.128.747 3.903 1.88 5.88 2.533.254.619.175.41-.296 1.033Zm2.62 5.242c-.082-.08-.163-.163-.246-.245-.181.011-.36.026-.54.04.298-.287.598-.574.9-.86-.042.354-.076.712-.114 1.065Zm.957 12.206c1.47 1.278 1.845 3.126 1.233 5.53-.63-1.425-1.257-2.85-1.89-4.274.21-.317.413-.633.62-.951.013-.101.023-.204.037-.305Zm.429-9.941c-.007.068-.01.137-.018.205-.256.296-.514.592-.772.888-.1-.196-.196-.393-.296-.589.462-.834.13-.386.736-.474.116-.01.233-.022.35-.03Zm.903-.013 3.44 1.28c-.007.115-.02.231-.03.347l-.87.585-3.443-1.279.032-.347.87-.586Zm6.697 4.424c-.635-.426-1.27-.85-1.906-1.273-.09-.171-.177-.344-.266-.515.828-.51.708-.484 1.584-.314.193.7.39 1.4.588 2.102Zm1.086-.42-.382.42c-.465-.238-.547-.544-.704-1.106.332.144.662.29.995.434l.09.252Zm-.811-3.163a11.09 11.09 0 0 0-.275.02c.297-.287.6-.573.903-.86-.21.28-.424.559-.628.84Zm5.154 5.563-.53.232c-.972-.547-1.94-1.093-2.907-1.64-.302-.413-.605-.826-.906-1.24 1.505-1.119 1.558.176 2.978.882.453.59.909 1.179 1.365 1.766Zm1.085.973-1.085-.395.654-.346.431.741Zm-1.32 1.783c.392.797.388.57 1.32.454-.555.482-1.111.964-1.669 1.446l-1.588-3.05a6.16 6.16 0 0 1 .02-.19c1.171-.252 1.55.174 2.693.343l.443.712c-.404.096-.812.19-1.22.285Zm.235 1.985a913.72 913.72 0 0 1 2.17-1.19c-.435.982-.999 1.49-1.671 2.211a159.9 159.9 0 0 0-.5-1.021Zm4.342 4.22c-.587.512-.97.677-2.084.768.298.032.598.067.895.1l-.018.16-3.058 1.303c-.028-1.315-.051-2.63-.078-3.945.702-.835 1.408-1.67 2.11-2.507.13-.061.256-.122.385-.184.615 1.436 1.234 2.872 1.848 4.306Zm-1.085-6.048c5.994-1.682 4.836 1.517 2.161 3.955-.722-1.318-1.444-2.637-2.161-3.955Zm5.428.637c-2.209 10.433-2.635 11.002-10.445 15.484-.136-.207-.275-.414-.412-.621l.276-1.164c5.095-1.462 7.992-4.14 7.69-10.215l2.552-3.296c.114-.062.227-.124.34-.188Zm.266 0c-.087-.36-.176-.72-.266-1.081l.813-.025-.547 1.106ZM86.63 51.896c.024-.384.05-.769.076-1.152.022-.33.042-.66.065-.989l.755-.25c.036-.003.07-.008.106-.012.212 1.305.002 2.272-.432 3.318-.364-.233-.435-.333-.57-.915Zm-4.343 9.677c.007-.064.011-.127.017-.191.476-1.142.95-2.283 1.424-3.425.097-.241.2-.482.3-.722l2.507.17c.038.19.063.373.078.552.11 1.3-.338 2.343-.801 3.702-1.175-.03-2.349-.057-3.525-.086Zm1.085 4.44.031-1.711.042-.431 1.831.137.268-.02c-.42.698-.838 1.396-1.255 2.095l-.916-.07Zm-1.075-7.157.111-.058.87-.448.094-.009c-.045.152-.087.304-.13.458l-.503 1.754c-.149-.52-.302-1.04-.452-1.561.003-.046.005-.091.01-.136Zm-1.693 5.507c-.163-.165-.33-.33-.489-.492.478.334.166.008.489.492Zm-2.66-1.315c.61-.388 1.27-.269 2.171-.255-.09.294-.177.59-.266.883-.743.298-.848.188-1.693.101-.07-.243-.139-.486-.212-.73Zm1.33 4.14.841 1.994-1.95 1.325c-.581-.798.054-3.042 1.108-3.318Zm-2.143-6.94c-.09.006-.18.012-.273.02l.356-.821c-.025.265-.055.533-.083.8Zm3.126.305-.142-.091c.161-.336.317-.672.477-1.008l.158-.007c.149.354.302.708.451 1.062l-.944.044Zm7.517-14.378c-.018-.124-.038-.25-.059-.374.286-.35.469-.568.96-.732l.126.654c-.21.141-.422.282-.631.424l-.396.028Zm-.059 2.701c-.195.26-.544.407-.792.617-.099-1.843-.197-3.686-.293-5.53l1.085 4.913Zm-1.992 7.412c.719-.4.82-.03.907.947-.727-.001-1.447-.004-2.172-.006l.035-.34 1.23-.6Zm-1.064-3.057c.162-.14.325-.28.49-.42.13.238.264.477.395.714-.062.131-.121.261-.185.392l-.9-.105.2-.58Zm-.2 2.933-1.133 1.071c-.245-.041-.492-.081-.737-.123l-.302.03c.177-.339.351-.676.529-1.013l1.642.035Zm-4.099-.628c-.451-.317-.123-.274-.21-.513l.21.513Zm3.425-4.937-3.67-1.911c.17-2.529.48-5.435.23-8.043 2.83 1.033 5.365 5.653 3.44 9.954Zm-2.584 0c.903.476.85.917 2.103 1.301.22.82-.114 1.143-.634 2.017l-1.33-.055c-.275-1.455.023-2.293-.139-3.263Zm.248 7.15c-.454-.317-.129-.275-.212-.514.07.172.139.344.212.513ZM88.8 47.102l.01-.202.98-.726c.172 1.132.107 3.018-.15 4.424-.578-.457-.684-2.378-.84-3.496Zm0 3.495c.222-.368.44-.737.656-1.105-.13.36-.259.722-.381 1.085a8.68 8.68 0 0 1-.275.02Zm6.33-3.306c.064-.004.124-.008.184-.01.052 4.235-2.55 5.006-5.97 6.6l-.544.035c.71-1.479 1.419-2.959 2.13-4.438 1.4-.729 2.802-1.457 4.2-2.187Zm-6.433-8.278c.035.11.07.22.103.329l-.272.196-.814-1.106.983.581Zm-.983 1.84c.015-.064.02-.13.03-.193l.24-.016.816 1.106c-.628-.303-.732-.376-1.086-.897ZM88.8 43.68l-1.466 1.388c-1.05-1.528-2.096-3.058-3.144-4.585-1.355-1.185-2.718-2.37-4.076-3.556.302-.235.6-.471.899-.707 1.972.858 5.424 2.493 6.12 4.532.226.663-.553 1.212-.023 1.767.63.657 1.26.188 1.69 1.16Zm-9.163 6.918c.108.044.22.088.33.131l.147 3.187-.508-.118c-.477-.354-.811-2.001-.374-2.716.133-.161.27-.322.405-.484Zm-2.405 5.544.35-.014c.12.288.242.577.36.865-.183.073-.371.146-.558.219l-.527.022c.127-.364.252-.728.375-1.092Zm-.993 17.682-.468-1.614 2.007-.587c.053-.002.11-.007.165-.011a2.43 2.43 0 0 0-.017.151c-.562.688-1.124 1.374-1.687 2.06ZM74.686 69.4c.197-.648.342-.747.7-1.106l.303.116.083.286-.668.66-.418.044Zm.51 1.106-.51-.564c.36-.181.725-.362 1.085-.542a221.9 221.9 0 0 1-.282 1.088l-.293.018Zm-1.144 5.02-.452-.376.335-.02 1.674-1.306c.053.444.11.888.163 1.33l-1.284.882c-.145-.17-.289-.34-.436-.51Zm.083 12.663c-2.613.113-4.173-.557-6.312-.746-.814-1.617-1.627-3.238-2.44-4.855l-.469-.486c4.102-.49 6.681-2.48 9.72-3.854 1.077 1.025 3.513 6.265 1.367 8.585-.51.793-1.087.872-1.866 1.356ZM62.91 82.737c.326-.02.654-.043.984-.064 1.478.996 2.485 2.782 3.19 4.424-1.446-.419-2.896-.841-4.342-1.262.322-1.105.458-2.229.168-3.098Zm-3.12-4.175c1.631-.475 3.26-.946 4.89-1.42 2.564.254 5.128.506 7.694.757l.14.39c-2.293 1.035-4.898 1.909-7.526 3.247-2.846.227-3.53-.84-5.503-1.543.103-.479.206-.954.306-1.431Zm-.305 5.21.098-.959 1.872-.14c.153.834.317 1.3.086 2.212l-2.056-1.113Zm-2.172 1.733c.242-.136.486-.27.727-.406.893-.593 1.565.2 2.53.511l-.384.38c-.958-.16-1.915-.323-2.873-.485Zm2.108-1.726a73.466 73.466 0 0 1-.706-.324c-.106-.259-.211-.522-.316-.782l1.086.068-.064 1.038Zm-3.193 0 1.085.935c-.002.58-.051.514-.181 1.277l-.904-2.212Zm-2.816-4.147c1.019-.31 2.378-.242 3.901-.277l-1.417 1.106-2.925-.289.44-.54ZM50.8 24.207c2.015-1.937 7.074-1.358 8.342-.129l.344-.03c-1.688 1.58-4.299 1.762-5.903 3.325-1.257-.842-2.297-1.381-2.783-3.166Zm11.09 3.166.853.974c-.76.045-1.56.09-2.356.157-1.797.154-3.572.424-4.812 1.07l-.16.011-.272-.423c1.52-.777 3.18-1.402 5.244-1.664.428-.055.875-.093 1.343-.114.054-.004.107-.008.16-.01Zm4.23-5.53c1.402 1.417 3.5 2.254 4.223 4.424-2.948-1.376-7.475-1.356-9.772-3.545 2.027.434 3.747.273 5.548-.879Zm.966 7.742 4.027.555.316-.026-3.23 2.79c-.506-1.025-.63-2.414-1.113-3.319Zm5.174 4.73c-.277-.041-.554-.085-.831-.127l1.085-.179-.254.307Zm-.831-2.642c.33-.327.664-.653.994-.982.032.369.06.737.091 1.106l-.72-.159c-.12.013-.245.022-.365.035Zm1.97 36.603-.477.019c-.138-.129-.273-.258-.408-.386.105-.14.208-.279.315-.418l.771-.302c-.069.362-.134.724-.201 1.087Zm-.865 2.017c.131-.155.266-.308.399-.463l.035-.43.632 1.011-1.086.096.02-.214Zm-.431 3.532c-.224-.27-.448-.542-.674-.812l2.171-.294-1.035 1.074c-.153.01-.308.02-.462.032Zm.411 3.318-2.171-.263 1.53-.843c.214.367.43.736.641 1.106Zm-1.523-3.12.438.418c-.525.136-1.047.272-1.573.407l-1.684.083c.78-.369 1.564-.738 2.347-1.106l.472.197Zm-6.077-47.756c1.269.035 2.61.358 3.257 1.106-.875-.087-2.447.055-2.844-.623-.135-.16-.275-.322-.413-.483Zm1.103 4.424c.62.545.837 1.186.724 2.212-.956-.331-.707-1.383-.724-2.212Zm1.069 6.972c.012-.063.021-.126.034-.188 2.162-.473 2.63.282 1.645.958-.851-.117-1.24-.44-1.68-.77Zm2.78 28.42.477.12a5.959 5.959 0 0 0-.017.151c-.358.278-.712.557-1.069.835l.445-1.094.165-.012Zm-.597-26.976.809-.674.265 1.106-1.086-.24.012-.192Zm3.245 29.575-2.623.687c-.21.01-.423.02-.634.032l.017-.111c.985-.193 1.614-.521 2.195-.995l.92.173.125.213Zm-1.872-2.6-.3-.612c.25-.164.499-.33.749-.493.113.062.225.122.338.182l-.43.892-.357.032Zm-6.813 7.649 1.292-1.012 4.001.345.135.298-2.702 1.569c-1.002-.165-1.869-.613-2.388-1.224-.112.01-.225.016-.338.024Zm-2.01.094 2.01 1.106-3.258-.576c.417-.176.831-.353 1.247-.53Zm-.162 2.258-.014.268-.618.346c-.153.017-.302.04-.453.057.004-.088.011-.177.016-.265.474-.633.393-.422 1.07-.406Zm-5.12-45.012a30.97 30.97 0 0 0-.308-.33c1.077-.592 2.779-.871 4.452-1.008 1.379-.112 2.736-.13 3.706-.148l.527 3.318c-1.416-.156-2.773-.342-4.233-.41a22.03 22.03 0 0 0-3.786.14c-.116-.521-.236-1.042-.357-1.562Zm1.597 44.381.266.467-.255.993c-1 .078-2 .153-3.002.23.322-.987.801-1.46 1.317-2.211l1.674.521Zm-3.701-3.84c-1.363-.075-3.236-1.08-3.633-2.211l4.343 1.112-.71 1.1Zm1.525-.058-.815.059c.009-.086.02-.174.028-.262.302-.28.6-.565.902-.844l-.115 1.047ZM52.972 31.11l1.32-.419c.284.357.568.714.85 1.072l-.891.034-1.28-.687Zm-.017 47.486c-.069.24-.137.483-.205.725-.106.008-.211.02-.316.034-.182-.37-.365-.74-.548-1.106l1.085.112c-.005.078-.012.156-.016.235Zm.604-4.771 2.532.515.138.345-1.968 2.458-2.375-.352 1.673-2.966Zm18.955-34.66.49-.724.178-.008 1.363.345.14.195-1.525.566-.646-.375Zm2.936-3.575c-.254-.159-.506-.316-.764-.475.78.288.33-.034.764.475Zm-.245 5.055c-.175-.148-.347-.296-.52-.444l1.087-.662c-.19.368-.38.737-.567 1.106Zm-.52 7.742 1.689.42c.453.178.443.227.483.686-.725-.28-1.939-.472-2.171-1.106Zm.165-3.013.234-.305.688 1.106-1.086-.212.164-.589Zm-21.99 36.39.112.29-1.462.563-.709.056.015-.15c.166-.263.331-.525.5-.787.692-.321.708-.112 1.544.027Zm-3.145-55.497c.949.705 1.192 1.581 1.047 4.424-.625-.804-1.002-2.503-1.047-4.424Zm.626-2.212c-.029.27-.056.535-.083.801l-.543.04c.206-.28.416-.559.626-.84Zm-.626 1.106c-.027.267-.051.533-.082.8l-1.003-.187.826-.593c.086-.008.175-.013.26-.02Zm0 64.148c.178-1.878.358-3.754.537-5.631 1.268-.336 2.538-.67 3.806-1.005l-4 6.434-.343.202Zm.269-15.134.583-.35c.533.637.055 1.55-.444 2.212-.421-.396-.467-.64-.356-1.536l.217-.326Zm-3.526-.54 1.251-2.022c.67.394 1.339.788 2.006 1.183-.687 1.08-1.38 2.16-2.072 3.24-.624-.555-1.006-1.376-1.185-2.402Zm0 8.66c.665-.612 1.335-1.223 2-1.834l.948.085c.103.172.204.344.31.517-.083.536-.16 1.073-.24 1.61l-3.018-.378ZM43.2 80.794l2.388-1.44 1.818.288c.044.084.092.167.137.252a1657.6 1657.6 0 0 0-1.913 1.673c-.957-.1-1.592-.356-2.09-.793l-.34.02Zm-.317-2.137.872-.408.375.08.156.183-2.53.843c-.242-.085-.483-.172-.727-.256l1.854-.442Zm-2.94-1.04c.212-.517.426-1.035.638-1.555 1.19-.155 1.469.435 2.359.807.084.13.172.263.26.395-.443.305-.887.608-1.33.914l-1.079.07c-.282-.209-.563-.42-.848-.63Zm-2.171 4.54 1.579-2.802c1.05-.002 1.176.086 1.608.644.19.322.027.15-.393.221-.033.322-.063.642-.097.966.55.086 1.098.17 1.645.257-.322.807-.373.7-.864 1.215-1.616.088-2.348-.224-3.478-.5Zm-1.83-3.908c.92.28 1.84.557 2.761.835.05.11.101.22.154.33l-1.772 2.153-2.57-.848 1.428-2.47Zm-10.635-2.99c.012-.11.023-.219.036-.328l1.54 1.193c.045.104.089.21.133.315-3.205 2.484 1.695 10.587 7.272 5.338l2.398.966c-.923 1.653-2.507 2.304-4.175 3.236-3.988.334-9.568-6.207-7.204-10.72Zm3.72 1.133.059.75-.886-.67c-.068-.145-.133-.29-.2-.435l1.027.355Zm5.487 4.698c-.66.514-1.323 1.029-1.986 1.541-3.903.413-5.486-2.303-5.614-5.642.255-.309.506-.617.76-.927l.336-.025c1.967 1.557 3.705 3.93 6.373 4.716l.131.337Zm-3.783-16.113c-.356-.261-.378-.386-.56-.823.25-.945.497-1.891.745-2.836l.868-.765c.187.275.374.548.559.822l-1.612 3.602Zm-.56.957 1.715-4.068.35-.207c.789 1.397 1.93 2.03 2.278 3.929l-2.579 2.707c-.8-.589-1.357-1.357-1.763-2.36Zm3.258 3.381c.727-.709 1.451-1.418 2.178-2.126.358.737.719 1.474 1.079 2.212-1.085-.03-2.17-.057-3.257-.086Zm5.428-22.347c-1.03 2.209-2.397 3.708-3.217 5.843-.357-1.94 1.8-4.73 2.496-6.445l.33-.19.391.792Zm0-6.083c1.613-.503 2.697-1.423 3.854-2.452l.489 1.478c-.458.613-.913 1.228-1.37 1.84l-2.973-.866Zm5.429.111-.589.755-.497-.084.012-.12c.33-.3.659-.6.986-.902.028.118.06.234.088.351Zm-.856-4.764.171-.01.685 1.447c-.087.256-.175.51-.26.764-.992-.522-.952-1.141-.596-2.2Zm-.2 32.063 1.002.721c-.346-.153-.688-.304-1.032-.453.008-.091.017-.18.03-.268Zm-.018 1.106 1.074.468a3.861 3.861 0 0 0-.018.134l-2.302 1.61c-.662-.296-.744-.892-.937-1.545l.016-.134c.723-.179 1.446-.356 2.167-.533Zm-3.215-2.212 1.032.417c-.185.108-.367.217-.552.324l-.534.06c.016-.266.035-.533.054-.801Zm-.054-22.12c1.304.372.891.125.949 1.106-.6-.35-.642-.52-.95-1.106Zm0 19.757.09-.955c.506.353.679.564.996 1.106a265.41 265.41 0 0 0-1.086-.151Zm2.171-13.812c-.407.527-.39.38-1.085.691l.476-1.106c.204.139.408.276.61.415Zm0-4.448-.68.715c-.684-.389-.36-.234-.054-.95.135-.05.27-.104.407-.156.11.13.22.26.327.392Zm-.086-1.882-1-.72c.77.294.592.114 1 .72Zm-2.085 20.293 1.086.87c-.556-.015-.851-.135-1.086-.87Zm3.257-.042-.442.042-.38-.705-.264-.345c.196-.02.392-.038.588-.056.166.355.331.71.498 1.064Zm-.6-20.479c-.161-.166-.325-.33-.486-.493.478.335.161.008.487.493Zm.069 18.214-.555-1.158.235-.95.138-.009c.236.737.476 1.474.713 2.212l-.531-.095Zm-2.845 12.868.119.148-.39 1.457c-.798-.32-1.616-1.15-1.781-2.212l2.052.607Zm-3.138 1.605c.363.322.723.645 1.086.968-.695-.307-.738-.294-1.086-.968Zm1.874-9.804c.042.32.089.638.131.956l-.92-1.106.789.15Zm-1.073 5.171a714.24 714.24 0 0 1-.801-2.003c.947.367 1.69 1.46 2.171 2.212l-1.37-.209Zm.852-19.69.27-.009c-.264.369-.527.737-.793 1.106-.131-.273.027-.535.47-.855.015-.081.035-.162.053-.242Zm-.567 9.506-.218.439-.624-.486-.244-.526.85-.094c.08.222.158.444.236.667Zm-7.6 9.287c2.176 1.423 5.871 2.742 6.514 5.53-2.523-1.205-4.982-3.374-6.514-5.53Zm5.642-1.068.872 1.068-2.172-1.106 1.3.038Zm7.95 3.28-1.65-1.667c.961-.92 1.925-1.837 2.886-2.757l.371 3.033c-.535.463-1.07.928-1.607 1.39Zm1.607 1.848c.098-.24.192-.48.289-.72.127-.009.253-.016.383-.022.139.368.276.737.414 1.106l-1.086-.364Zm1.464-4.06c-.126-.369-.25-.737-.378-1.106.265.05.529.097.787.147-.134.319-.272.64-.409.959ZM45.371 34.37l.011-.097 1.075-.265c-.25.369-.501.737-.75 1.106l-.336-.744ZM34.425 57.235l-.996-2.212c1.275.281 1.071 1.194.996 2.212Zm-2.66 1.106c-.927-.648-1.52-1.934-1.593-3.318 1.904.453 1.8 1.207 2.17 2.953l-.577.365Zm-1.122-5.771c-1.384-1.315.633-6.581 1.52-7.792.467-.595 1.058-.584 1.838-.815.172.044.34.09.513.134-1.304 2.322-2.186 5.48-2.498 8.714a401.13 401.13 0 0 0-1.373-.241Zm-2.026 17.937.664 1.122-.594 1.39-.341.364c.484.07.593-.351 1.323-.947 1.404 2.296 3.558 4.487 5.931 5.736-.432.762-.866 1.525-1.297 2.289l-3.92-2.539c-.45-.835.17-1.794-.552-2.306-.652-.463-1.495.207-2.16.006-.613-.567-1.228-1.133-1.842-1.699.54-1.215 1.061-2.407 2.134-3.028.22-.13.436-.26.654-.388Zm-3.755-12.195c.138-1.088.372-2.212.638-3.276a10.7 10.7 0 0 0 .148-.013l.566 3.289.295 1.718c.858 2.386 1.717 4.773 2.577 7.159-2.061-1.134-3.339-3.752-3.156-7.274-.495 1.137-.082 2.924.08 3.924-1.269-1.078-1.432-3.224-1.148-5.527Zm-1.882 1.135a4.047 4.047 0 0 1-.368-1.332c-.061-.526-.052-1.134.02-1.86.061-.134.124-.265.186-.397l.84-.835-.475 3.092-.203 1.332Zm75.591 11.06-2.171-.841 2.108-.265.063 1.106ZM41.114 88.508c.19-.103.382-.205.57-.305-.216.366-.438.737-.655 1.103l.085-.798ZM24.743 50.599l-.926-.09c-1.15-.378-2.233-1.727-2.331-3.228 1.763.16 2.359.998 3.23 2.023.01.43.02.862.027 1.295Zm-.128-.092c.126-2.386-1.688-3.876-4.042-3.812.404-3.355 3.304-5.069 5.89-6.195l.498-.038c-.434 4.21-.105 7.835-1.67 11.476-1.157 2.683-5.255 2.633-5.03 6.768.004.112.013.229.026.348.585 5.503 6.54 6.622 7.365 11.461-8.828 4.51 1.933 23.474 8.916 12.335 1.25.18 2.365.751 3.92.201.723-.401.867-.727 1.147-1.564l2.495 1.295.132.319c-2.288 1.782-3.9 4.227-6.355 5.901.076-.226.155-.453.234-.677l-.645-.116-.349.191c-.107.5-.211 1.003-.32 1.503 1.402 1.437 5.654-3.767 6.9-4.79-.706 2.476-2.445 3.748-3.41 6.012.097.103.198.206.297.308 1.834-1.321 4.083-5.056 4.424-7.898l2.746.456c-3.442 4.678-12.285 14.963-16.932 17.707.704-2.232 1.834-3.936 2.401-5.77l-.33.023-.299-.307c-1.13 2.239-2.996 3.808-3.328 6.827.236.369.488.567.742.767 5.528-.926 14.756-14.885 19.168-18.696-1.193 12.04-7.616 13.919-13.185 21.214 5.06-2.537 8.132-9.009 12.464-12.605-.48 5.034-1.67 16.281-4.67 18.278.165-.014.33-.024.497-.037 3.36-2.1 3.557-10.737 4.677-15.152l.477-4.641c1.6-2.26 3.201-4.518 4.802-6.774.117-.063.232-.128.348-.19.537 1.694 2.968 3.53 5.602 3.038l1.887-.797c1.584.594 3.164 1.188 4.744 1.784.623 6.855.383 10.699-3.936 15.92 4.413-2.266 6.035-11.002 4.566-15.637 10.263 1.194 9.852-2.287 7.903-9.798.603.008 1.204.02 1.806.03-.33-.502-1.232-.13-1.92-.515-.311-.202-.25-.164-.445-.461 2.442-2.767 8.316-.019 7.086 4.572 1.686-3.808-2.046-7.192-5.642-5.831 1.536-1.829 3.396-3.332 4.368-5.753.118-.064.233-.128.35-.19l8.447 8.913c.164-.012.331-.025.497-.036.128-.174.254-.348.38-.523-2.68-3.199-5.366-6.402-8.047-9.6.286-.133.573-.264.863-.395.465-.443.976-.59 1.488-.52l-.428-.216c4.316.436 9.823 4.048 14.324 2.884.416-.725.434-1.119.185-1.823 4.794.121 13.419-1.49 16.163-3.832-7.373 1.557-15.685 2.085-22.46 1.174l-6.002-.706-.335.025 1.614-2.917c4.95-.091 17.923-.217 20.547-3.335-.193-.26-.386-.52-.577-.78-.755-.108-1.511-.216-2.265-.326-.195.29-.222.566-.253.843l1.788.196c-3.889.984-14.72 3.061-18.257 1.848-.373-.452-.097-2.028-.081-3.163a4.206 4.206 0 0 0-.024-.612c5.083-1.527 8.857-4.96 10.404-10.15.885-2.966.298-6.867 2.211-8.718 1.221.108 1.467.625 2.364.977-.475-.663-1.151-1.03-1.999-1.333l-1.591 1.105c-1.456.566-2.98-.914-5.447.24-2.003-1.722-3.135-4.446-5.841-5.487l-.28-.473 3.286-3.206c-1.078.903-2.172 1.971-3.269 3.04-.73-.33-1.466-.66-2.2-.988a9.742 9.742 0 0 0-.13-.32c2.506-1.784 4.732-2.446 7.586-1.879.135.264.275.527.412.791-.134.23-.252.293-.366.357-.32-.086-.642-.171-.96-.259.413.245.844.323 1.274.4.12-.12.243-.238.362-.356l.055-.498c-.623-.558-.814-.96-2.036-1l.585-.865c-1.402.965-4.24 1.223-5.634 2.063l3.218-2.543c.127-.173.254-.348.382-.52-1.984 1.187-3.967 2.377-5.95 3.567-1.271-.09-2.622-.686-3.307-1.4l-.332.024c2.357-1.6 4.711-3.201 7.065-4.8l-.113-.487c-2.682 1.57-5.361 3.14-8.04 4.71-.856-.21-1.71-.421-2.564-.633.078-.773.159-1.546.238-2.32l18.412-14.527c.109-.01.22-.017.33-.024a67.34 67.34 0 0 1-.262-.64c-.684-.328-3.485 1.957-4.543 2.641-4.076 2.628-7.681 5.898-11.691 8.271 1.655-2.112 4.687-4.216 5.186-7.295l-.812-.104c-.418.36-.838.72-1.26 1.081.459-.198.917-.396 1.374-.596-.888 2.707-4.909 7.552-7.173 9.087a132.3 132.3 0 0 1-.263-.638c1.474-2.497 2.928-5.849 2.244-9.05l-1.24-.731-1.324.099c.85.337 1.425.42 2.048.834.4 3.104-1.122 5.203-1.94 7.712-.118.063-.233.127-.349.191-.547-1.013-.512-1.504-1.633-1.689a48.666 48.666 0 0 1-.097-.651c.254-.349.51-.695.764-1.043l.53-.37c.18.338.188.22.246.805.193-.288.221-.564.248-.841l-.625-.282-1.66 1.768c-1.388-.933-2.911-1.91-4.859-2.27 1.102-2.306 4.46-6.006 2.724-8.922-2.113-3.547-9.333.542-11.976 3.355-.355.38-.63.736-.796 1.048.169-.137.442-.353.796-.617 2.608-1.957 9.558-6.635 11.063-2.896 1.579 2.089-1.446 6.104-2.272 7.736-2.815-.286-5.76-.557-8.787-.497-3.057.063-6.203.46-9.386 1.518-1.54.51-8.087 4.452-8.337 4.402l-2.988-2.904-6.245-3.154c-.013.11-.023.22-.033.331-.123.12-.246.238-.366.357 2.667 2.268 5.338 4.538 8.003 6.808l-1.223.75c-3.292-2.509-5.561-4.032-10.462-5.311l-.826.061c2.862 1.98 5.743 3.796 8.622 5.61l.577.781c-2.056.873-2.925 2.678-4.663 3.8-2.713-1.303-5.223-2.48-8.511-3.48l-.233.676a8071.87 8071.87 0 0 1 6.16 3.984l.331-.024-1.06.736c-.492 1.66-1.454 3.583-2.253 5.925-3.07 2.511-7.05 2.36-7.667 7.479-.979.27-1.675.355-2.567 1.012l-.068.664c.56.792 5.548 2.91 6.74 3.118l.732-.712ZM61.04 15.124l.453.083-.61-.075-.313.015c.48-.902 1.896-1.124 3.258-1.023-.032.216-.062.432-.096.647l-2.66.136-.032.217Zm1.901 1.19 1.281-.424c.553-.924.868-1.904.586-2.802-1.315-.262-2.076.062-3.31.582-.224.367-.447.737-.668 1.104l-.26.426c.086.096.169.18.26.256.416.347.92.467 1.847.39.252.436-.04.242-.499.365.254.033.508.069.763.102Zm31.577 9.953-1.376.26.847-.06.967.417-1.467 2.701c.754-.894 1.506-1.53 1.824-2.889l-.795-.429Zm-7.89 43.134c-.344-.609-.716-1.012-1.086-1.106.33.312.71.678 1.086 1.106Zm-4.343 13.272c-.362.212-.725.423-1.086.632l.834-.078c.086-.186.17-.37.252-.554ZM86.629 69.4c1.102 1.254 1.932 3.653 1.692 5.53 1.252-2.722-.177-4.42-1.692-5.53Z" fill="#629FBC"/></svg>
